<?xml version="1.0" encoding="UTF-8" ?>
<svg version="1.1" width="32" height="32" xmlns="http://www.w3.org/2000/svg" shape-rendering="crispEdges">
<rect x="13" y="0" width="1" height="1" fill="inherit" />
<rect x="14" y="0" width="1" height="1" fill="inherit" />
<rect x="15" y="0" width="1" height="1" fill="inherit" />
<rect x="16" y="0" width="1" height="1" fill="inherit" />
<rect x="17" y="0" width="1" height="1" fill="inherit" />
<rect x="18" y="0" width="1" height="1" fill="inherit" />
<rect x="11" y="1" width="1" height="1" fill="inherit" />
<rect x="12" y="1" width="1" height="1" fill="inherit" />
<rect x="13" y="1" width="1" height="1" fill="inherit" />
<rect x="14" y="1" width="1" height="1" fill="inherit" />
<rect x="17" y="1" width="1" height="1" fill="inherit" />
<rect x="18" y="1" width="1" height="1" fill="inherit" />
<rect x="19" y="1" width="1" height="1" fill="inherit" />
<rect x="20" y="1" width="1" height="1" fill="inherit" />
<rect x="9" y="2" width="1" height="1" fill="inherit" />
<rect x="10" y="2" width="1" height="1" fill="inherit" />
<rect x="11" y="2" width="1" height="1" fill="inherit" />
<rect x="12" y="2" width="1" height="1" fill="inherit" />
<rect x="19" y="2" width="1" height="1" fill="inherit" />
<rect x="20" y="2" width="1" height="1" fill="inherit" />
<rect x="21" y="2" width="1" height="1" fill="inherit" />
<rect x="22" y="2" width="1" height="1" fill="inherit" />
<rect x="7" y="3" width="1" height="1" fill="inherit" />
<rect x="8" y="3" width="1" height="1" fill="inherit" />
<rect x="9" y="3" width="1" height="1" fill="inherit" />
<rect x="10" y="3" width="1" height="1" fill="inherit" />
<rect x="21" y="3" width="1" height="1" fill="inherit" />
<rect x="22" y="3" width="1" height="1" fill="inherit" />
<rect x="23" y="3" width="1" height="1" fill="inherit" />
<rect x="24" y="3" width="1" height="1" fill="inherit" />
<rect x="5" y="4" width="1" height="1" fill="inherit" />
<rect x="6" y="4" width="1" height="1" fill="inherit" />
<rect x="7" y="4" width="1" height="1" fill="inherit" />
<rect x="8" y="4" width="1" height="1" fill="inherit" />
<rect x="23" y="4" width="1" height="1" fill="inherit" />
<rect x="24" y="4" width="1" height="1" fill="inherit" />
<rect x="25" y="4" width="1" height="1" fill="inherit" />
<rect x="26" y="4" width="1" height="1" fill="inherit" />
<rect x="3" y="5" width="1" height="1" fill="inherit" />
<rect x="4" y="5" width="1" height="1" fill="inherit" />
<rect x="5" y="5" width="1" height="1" fill="inherit" />
<rect x="6" y="5" width="1" height="1" fill="inherit" />
<rect x="25" y="5" width="1" height="1" fill="inherit" />
<rect x="26" y="5" width="1" height="1" fill="inherit" />
<rect x="27" y="5" width="1" height="1" fill="inherit" />
<rect x="28" y="5" width="1" height="1" fill="inherit" />
<rect x="1" y="6" width="1" height="1" fill="inherit" />
<rect x="2" y="6" width="1" height="1" fill="inherit" />
<rect x="3" y="6" width="1" height="1" fill="inherit" />
<rect x="4" y="6" width="1" height="1" fill="inherit" />
<rect x="27" y="6" width="1" height="1" fill="inherit" />
<rect x="28" y="6" width="1" height="1" fill="inherit" />
<rect x="29" y="6" width="1" height="1" fill="inherit" />
<rect x="30" y="6" width="1" height="1" fill="inherit" />
<rect x="0" y="7" width="1" height="1" fill="inherit" />
<rect x="1" y="7" width="1" height="1" fill="inherit" />
<rect x="2" y="7" width="1" height="1" fill="inherit" />
<rect x="29" y="7" width="1" height="1" fill="inherit" />
<rect x="30" y="7" width="1" height="1" fill="inherit" />
<rect x="31" y="7" width="1" height="1" fill="inherit" />
<rect x="0" y="8" width="1" height="1" fill="inherit" />
<rect x="1" y="8" width="1" height="1" fill="inherit" />
<rect x="7" y="8" width="1" height="1" fill="inherit" />
<rect x="8" y="8" width="1" height="1" fill="inherit" />
<rect x="9" y="8" width="1" height="1" fill="inherit" />
<rect x="10" y="8" width="1" height="1" fill="inherit" />
<rect x="11" y="8" width="1" height="1" fill="inherit" />
<rect x="12" y="8" width="1" height="1" fill="inherit" />
<rect x="19" y="8" width="1" height="1" fill="inherit" />
<rect x="20" y="8" width="1" height="1" fill="inherit" />
<rect x="21" y="8" width="1" height="1" fill="inherit" />
<rect x="22" y="8" width="1" height="1" fill="inherit" />
<rect x="23" y="8" width="1" height="1" fill="inherit" />
<rect x="24" y="8" width="1" height="1" fill="inherit" />
<rect x="30" y="8" width="1" height="1" fill="inherit" />
<rect x="31" y="8" width="1" height="1" fill="inherit" />
<rect x="0" y="9" width="1" height="1" fill="inherit" />
<rect x="1" y="9" width="1" height="1" fill="inherit" />
<rect x="8" y="9" width="1" height="1" fill="inherit" />
<rect x="9" y="9" width="1" height="1" fill="inherit" />
<rect x="10" y="9" width="1" height="1" fill="inherit" />
<rect x="11" y="9" width="1" height="1" fill="inherit" />
<rect x="12" y="9" width="1" height="1" fill="inherit" />
<rect x="13" y="9" width="1" height="1" fill="inherit" />
<rect x="18" y="9" width="1" height="1" fill="inherit" />
<rect x="19" y="9" width="1" height="1" fill="inherit" />
<rect x="20" y="9" width="1" height="1" fill="inherit" />
<rect x="21" y="9" width="1" height="1" fill="inherit" />
<rect x="22" y="9" width="1" height="1" fill="inherit" />
<rect x="23" y="9" width="1" height="1" fill="inherit" />
<rect x="24" y="9" width="1" height="1" fill="inherit" />
<rect x="25" y="9" width="1" height="1" fill="inherit" />
<rect x="30" y="9" width="1" height="1" fill="inherit" />
<rect x="31" y="9" width="1" height="1" fill="inherit" />
<rect x="0" y="10" width="1" height="1" fill="inherit" />
<rect x="1" y="10" width="1" height="1" fill="inherit" />
<rect x="12" y="10" width="1" height="1" fill="inherit" />
<rect x="13" y="10" width="1" height="1" fill="inherit" />
<rect x="18" y="10" width="1" height="1" fill="inherit" />
<rect x="19" y="10" width="1" height="1" fill="inherit" />
<rect x="24" y="10" width="1" height="1" fill="inherit" />
<rect x="25" y="10" width="1" height="1" fill="inherit" />
<rect x="30" y="10" width="1" height="1" fill="inherit" />
<rect x="31" y="10" width="1" height="1" fill="inherit" />
<rect x="0" y="11" width="1" height="1" fill="inherit" />
<rect x="1" y="11" width="1" height="1" fill="inherit" />
<rect x="12" y="11" width="1" height="1" fill="inherit" />
<rect x="13" y="11" width="1" height="1" fill="inherit" />
<rect x="18" y="11" width="1" height="1" fill="inherit" />
<rect x="19" y="11" width="1" height="1" fill="inherit" />
<rect x="24" y="11" width="1" height="1" fill="inherit" />
<rect x="25" y="11" width="1" height="1" fill="inherit" />
<rect x="30" y="11" width="1" height="1" fill="inherit" />
<rect x="31" y="11" width="1" height="1" fill="inherit" />
<rect x="0" y="12" width="1" height="1" fill="inherit" />
<rect x="1" y="12" width="1" height="1" fill="inherit" />
<rect x="12" y="12" width="1" height="1" fill="inherit" />
<rect x="13" y="12" width="1" height="1" fill="inherit" />
<rect x="18" y="12" width="1" height="1" fill="inherit" />
<rect x="19" y="12" width="1" height="1" fill="inherit" />
<rect x="24" y="12" width="1" height="1" fill="inherit" />
<rect x="25" y="12" width="1" height="1" fill="inherit" />
<rect x="30" y="12" width="1" height="1" fill="inherit" />
<rect x="31" y="12" width="1" height="1" fill="inherit" />
<rect x="0" y="13" width="1" height="1" fill="inherit" />
<rect x="1" y="13" width="1" height="1" fill="inherit" />
<rect x="12" y="13" width="1" height="1" fill="inherit" />
<rect x="13" y="13" width="1" height="1" fill="inherit" />
<rect x="18" y="13" width="1" height="1" fill="inherit" />
<rect x="19" y="13" width="1" height="1" fill="inherit" />
<rect x="24" y="13" width="1" height="1" fill="inherit" />
<rect x="25" y="13" width="1" height="1" fill="inherit" />
<rect x="30" y="13" width="1" height="1" fill="inherit" />
<rect x="31" y="13" width="1" height="1" fill="inherit" />
<rect x="0" y="14" width="1" height="1" fill="inherit" />
<rect x="1" y="14" width="1" height="1" fill="inherit" />
<rect x="12" y="14" width="1" height="1" fill="inherit" />
<rect x="13" y="14" width="1" height="1" fill="inherit" />
<rect x="18" y="14" width="1" height="1" fill="inherit" />
<rect x="19" y="14" width="1" height="1" fill="inherit" />
<rect x="24" y="14" width="1" height="1" fill="inherit" />
<rect x="25" y="14" width="1" height="1" fill="inherit" />
<rect x="30" y="14" width="1" height="1" fill="inherit" />
<rect x="31" y="14" width="1" height="1" fill="inherit" />
<rect x="0" y="15" width="1" height="1" fill="inherit" />
<rect x="1" y="15" width="1" height="1" fill="inherit" />
<rect x="7" y="15" width="1" height="1" fill="inherit" />
<rect x="8" y="15" width="1" height="1" fill="inherit" />
<rect x="9" y="15" width="1" height="1" fill="inherit" />
<rect x="10" y="15" width="1" height="1" fill="inherit" />
<rect x="11" y="15" width="1" height="1" fill="inherit" />
<rect x="12" y="15" width="1" height="1" fill="inherit" />
<rect x="13" y="15" width="1" height="1" fill="inherit" />
<rect x="18" y="15" width="1" height="1" fill="inherit" />
<rect x="19" y="15" width="1" height="1" fill="inherit" />
<rect x="24" y="15" width="1" height="1" fill="inherit" />
<rect x="25" y="15" width="1" height="1" fill="inherit" />
<rect x="30" y="15" width="1" height="1" fill="inherit" />
<rect x="31" y="15" width="1" height="1" fill="inherit" />
<rect x="0" y="16" width="1" height="1" fill="inherit" />
<rect x="1" y="16" width="1" height="1" fill="inherit" />
<rect x="6" y="16" width="1" height="1" fill="inherit" />
<rect x="7" y="16" width="1" height="1" fill="inherit" />
<rect x="8" y="16" width="1" height="1" fill="inherit" />
<rect x="9" y="16" width="1" height="1" fill="inherit" />
<rect x="10" y="16" width="1" height="1" fill="inherit" />
<rect x="11" y="16" width="1" height="1" fill="inherit" />
<rect x="12" y="16" width="1" height="1" fill="inherit" />
<rect x="18" y="16" width="1" height="1" fill="inherit" />
<rect x="19" y="16" width="1" height="1" fill="inherit" />
<rect x="24" y="16" width="1" height="1" fill="inherit" />
<rect x="25" y="16" width="1" height="1" fill="inherit" />
<rect x="30" y="16" width="1" height="1" fill="inherit" />
<rect x="31" y="16" width="1" height="1" fill="inherit" />
<rect x="0" y="17" width="1" height="1" fill="inherit" />
<rect x="1" y="17" width="1" height="1" fill="inherit" />
<rect x="6" y="17" width="1" height="1" fill="inherit" />
<rect x="7" y="17" width="1" height="1" fill="inherit" />
<rect x="18" y="17" width="1" height="1" fill="inherit" />
<rect x="19" y="17" width="1" height="1" fill="inherit" />
<rect x="24" y="17" width="1" height="1" fill="inherit" />
<rect x="25" y="17" width="1" height="1" fill="inherit" />
<rect x="30" y="17" width="1" height="1" fill="inherit" />
<rect x="31" y="17" width="1" height="1" fill="inherit" />
<rect x="0" y="18" width="1" height="1" fill="inherit" />
<rect x="1" y="18" width="1" height="1" fill="inherit" />
<rect x="6" y="18" width="1" height="1" fill="inherit" />
<rect x="7" y="18" width="1" height="1" fill="inherit" />
<rect x="18" y="18" width="1" height="1" fill="inherit" />
<rect x="19" y="18" width="1" height="1" fill="inherit" />
<rect x="24" y="18" width="1" height="1" fill="inherit" />
<rect x="25" y="18" width="1" height="1" fill="inherit" />
<rect x="30" y="18" width="1" height="1" fill="inherit" />
<rect x="31" y="18" width="1" height="1" fill="inherit" />
<rect x="0" y="19" width="1" height="1" fill="inherit" />
<rect x="1" y="19" width="1" height="1" fill="inherit" />
<rect x="6" y="19" width="1" height="1" fill="inherit" />
<rect x="7" y="19" width="1" height="1" fill="inherit" />
<rect x="18" y="19" width="1" height="1" fill="inherit" />
<rect x="19" y="19" width="1" height="1" fill="inherit" />
<rect x="24" y="19" width="1" height="1" fill="inherit" />
<rect x="25" y="19" width="1" height="1" fill="inherit" />
<rect x="30" y="19" width="1" height="1" fill="inherit" />
<rect x="31" y="19" width="1" height="1" fill="inherit" />
<rect x="0" y="20" width="1" height="1" fill="inherit" />
<rect x="1" y="20" width="1" height="1" fill="inherit" />
<rect x="6" y="20" width="1" height="1" fill="inherit" />
<rect x="7" y="20" width="1" height="1" fill="inherit" />
<rect x="18" y="20" width="1" height="1" fill="inherit" />
<rect x="19" y="20" width="1" height="1" fill="inherit" />
<rect x="24" y="20" width="1" height="1" fill="inherit" />
<rect x="25" y="20" width="1" height="1" fill="inherit" />
<rect x="30" y="20" width="1" height="1" fill="inherit" />
<rect x="31" y="20" width="1" height="1" fill="inherit" />
<rect x="0" y="21" width="1" height="1" fill="inherit" />
<rect x="1" y="21" width="1" height="1" fill="inherit" />
<rect x="6" y="21" width="1" height="1" fill="inherit" />
<rect x="7" y="21" width="1" height="1" fill="inherit" />
<rect x="18" y="21" width="1" height="1" fill="inherit" />
<rect x="19" y="21" width="1" height="1" fill="inherit" />
<rect x="24" y="21" width="1" height="1" fill="inherit" />
<rect x="25" y="21" width="1" height="1" fill="inherit" />
<rect x="30" y="21" width="1" height="1" fill="inherit" />
<rect x="31" y="21" width="1" height="1" fill="inherit" />
<rect x="0" y="22" width="1" height="1" fill="inherit" />
<rect x="1" y="22" width="1" height="1" fill="inherit" />
<rect x="6" y="22" width="1" height="1" fill="inherit" />
<rect x="7" y="22" width="1" height="1" fill="inherit" />
<rect x="8" y="22" width="1" height="1" fill="inherit" />
<rect x="9" y="22" width="1" height="1" fill="inherit" />
<rect x="10" y="22" width="1" height="1" fill="inherit" />
<rect x="11" y="22" width="1" height="1" fill="inherit" />
<rect x="18" y="22" width="1" height="1" fill="inherit" />
<rect x="19" y="22" width="1" height="1" fill="inherit" />
<rect x="20" y="22" width="1" height="1" fill="inherit" />
<rect x="21" y="22" width="1" height="1" fill="inherit" />
<rect x="22" y="22" width="1" height="1" fill="inherit" />
<rect x="23" y="22" width="1" height="1" fill="inherit" />
<rect x="24" y="22" width="1" height="1" fill="inherit" />
<rect x="25" y="22" width="1" height="1" fill="inherit" />
<rect x="30" y="22" width="1" height="1" fill="inherit" />
<rect x="31" y="22" width="1" height="1" fill="inherit" />
<rect x="0" y="23" width="1" height="1" fill="inherit" />
<rect x="1" y="23" width="1" height="1" fill="inherit" />
<rect x="7" y="23" width="1" height="1" fill="inherit" />
<rect x="8" y="23" width="1" height="1" fill="inherit" />
<rect x="9" y="23" width="1" height="1" fill="inherit" />
<rect x="10" y="23" width="1" height="1" fill="inherit" />
<rect x="11" y="23" width="1" height="1" fill="inherit" />
<rect x="12" y="23" width="1" height="1" fill="inherit" />
<rect x="19" y="23" width="1" height="1" fill="inherit" />
<rect x="20" y="23" width="1" height="1" fill="inherit" />
<rect x="21" y="23" width="1" height="1" fill="inherit" />
<rect x="22" y="23" width="1" height="1" fill="inherit" />
<rect x="23" y="23" width="1" height="1" fill="inherit" />
<rect x="24" y="23" width="1" height="1" fill="inherit" />
<rect x="30" y="23" width="1" height="1" fill="inherit" />
<rect x="31" y="23" width="1" height="1" fill="inherit" />
<rect x="0" y="24" width="1" height="1" fill="inherit" />
<rect x="1" y="24" width="1" height="1" fill="inherit" />
<rect x="2" y="24" width="1" height="1" fill="inherit" />
<rect x="29" y="24" width="1" height="1" fill="inherit" />
<rect x="30" y="24" width="1" height="1" fill="inherit" />
<rect x="31" y="24" width="1" height="1" fill="inherit" />
<rect x="1" y="25" width="1" height="1" fill="inherit" />
<rect x="2" y="25" width="1" height="1" fill="inherit" />
<rect x="3" y="25" width="1" height="1" fill="inherit" />
<rect x="4" y="25" width="1" height="1" fill="inherit" />
<rect x="27" y="25" width="1" height="1" fill="inherit" />
<rect x="28" y="25" width="1" height="1" fill="inherit" />
<rect x="29" y="25" width="1" height="1" fill="inherit" />
<rect x="30" y="25" width="1" height="1" fill="inherit" />
<rect x="3" y="26" width="1" height="1" fill="inherit" />
<rect x="4" y="26" width="1" height="1" fill="inherit" />
<rect x="5" y="26" width="1" height="1" fill="inherit" />
<rect x="6" y="26" width="1" height="1" fill="inherit" />
<rect x="25" y="26" width="1" height="1" fill="inherit" />
<rect x="26" y="26" width="1" height="1" fill="inherit" />
<rect x="27" y="26" width="1" height="1" fill="inherit" />
<rect x="28" y="26" width="1" height="1" fill="inherit" />
<rect x="5" y="27" width="1" height="1" fill="inherit" />
<rect x="6" y="27" width="1" height="1" fill="inherit" />
<rect x="7" y="27" width="1" height="1" fill="inherit" />
<rect x="8" y="27" width="1" height="1" fill="inherit" />
<rect x="23" y="27" width="1" height="1" fill="inherit" />
<rect x="24" y="27" width="1" height="1" fill="inherit" />
<rect x="25" y="27" width="1" height="1" fill="inherit" />
<rect x="26" y="27" width="1" height="1" fill="inherit" />
<rect x="7" y="28" width="1" height="1" fill="inherit" />
<rect x="8" y="28" width="1" height="1" fill="inherit" />
<rect x="9" y="28" width="1" height="1" fill="inherit" />
<rect x="10" y="28" width="1" height="1" fill="inherit" />
<rect x="21" y="28" width="1" height="1" fill="inherit" />
<rect x="22" y="28" width="1" height="1" fill="inherit" />
<rect x="23" y="28" width="1" height="1" fill="inherit" />
<rect x="24" y="28" width="1" height="1" fill="inherit" />
<rect x="9" y="29" width="1" height="1" fill="inherit" />
<rect x="10" y="29" width="1" height="1" fill="inherit" />
<rect x="11" y="29" width="1" height="1" fill="inherit" />
<rect x="12" y="29" width="1" height="1" fill="inherit" />
<rect x="19" y="29" width="1" height="1" fill="inherit" />
<rect x="20" y="29" width="1" height="1" fill="inherit" />
<rect x="21" y="29" width="1" height="1" fill="inherit" />
<rect x="22" y="29" width="1" height="1" fill="inherit" />
<rect x="11" y="30" width="1" height="1" fill="inherit" />
<rect x="12" y="30" width="1" height="1" fill="inherit" />
<rect x="13" y="30" width="1" height="1" fill="inherit" />
<rect x="14" y="30" width="1" height="1" fill="inherit" />
<rect x="17" y="30" width="1" height="1" fill="inherit" />
<rect x="18" y="30" width="1" height="1" fill="inherit" />
<rect x="19" y="30" width="1" height="1" fill="inherit" />
<rect x="20" y="30" width="1" height="1" fill="inherit" />
<rect x="13" y="31" width="1" height="1" fill="inherit" />
<rect x="14" y="31" width="1" height="1" fill="inherit" />
<rect x="15" y="31" width="1" height="1" fill="inherit" />
<rect x="16" y="31" width="1" height="1" fill="inherit" />
<rect x="17" y="31" width="1" height="1" fill="inherit" />
<rect x="18" y="31" width="1" height="1" fill="inherit" />
</svg>